<?xml version="1.0" encoding="UTF-8"?>
<!DOCTYPE svg PUBLIC "-//W3C//DTD SVG 1.1//EN" "http://www.w3.org/Graphics/SVG/1.1/DTD/svg11.dtd">
<!-- Creator: CorelDRAW -->
<svg xmlns="http://www.w3.org/2000/svg" xml:space="preserve" width="8.5in" height="11in" version="1.1" style="shape-rendering:geometricPrecision; text-rendering:geometricPrecision; image-rendering:optimizeQuality; fill-rule:evenodd; clip-rule:evenodd"
viewBox="0 0 8500 11000"
 xmlns:xlink="http://www.w3.org/1999/xlink"
 xmlns:xodm="http://www.corel.com/coreldraw/odm/2003">
 <defs>
  <style type="text/css">
   <![CDATA[
    .str0 {stroke:#FEFEFE;stroke-width:6.94;stroke-miterlimit:2.61313}
    .fil2 {fill:none}
    .fil4 {fill:#0D9948}
    .fil0 {fill:#33C6F4}
    .fil3 {fill:#0D9948;fill-rule:nonzero}
    .fil1 {fill:#33C6F4;fill-rule:nonzero}
   ]]>
  </style>
 </defs>
 <g id="Layer_x0020_1">
  <metadata id="CorelCorpID_0Corel-Layer"/>
  <path class="fil0" d="M5484.33 7977.16c111.71,-28.21 274.27,-241.76 173.32,-302.37 -30.8,-18.49 -152.23,118.32 -219.81,-202.39 250.47,18.94 241.93,105.18 226.12,180.65 -5.26,25.11 29.96,0.85 41.24,76.47 26.18,-93.37 46.49,-183.5 30.6,-245.32 -31.67,4.13 -114,-60.37 -135.17,-151.58 -14.19,-87.39 -12.84,-190.07 21.36,-267.14 76.67,24.92 187.24,119.43 220.76,174.28 79.25,129.73 13.63,178.74 -67.07,234.96 -0.74,151.73 -13.33,176.54 -53.8,296.32l54.16 -0.97c1.76,-4.44 2.78,-13.68 3.16,-11.88 -12.83,0.17 -8,-110.41 60.3,-150.51 63.59,-44.75 167.5,-34.51 251.07,-31.7 -12.43,53.07 -73.49,157.2 -120.99,189.63 -98.53,67.25 -131.19,-17.42 -234.02,27.87 -139.56,61.46 -71.59,354.84 201.41,217.03 112.69,-56.89 222.42,-191.79 211.26,-381.92 -11.82,-201.5 -313.01,-679.26 -413.91,-784.22 -115.8,129.19 -235.89,352.52 -326.8,526.45 -115.07,220.14 -129.99,484.98 76.8,606.33z"/>
  <path class="fil1" d="M4849.91 7489.04l-1.9 -41.43c-8.95,1.5 -16.29,5.14 -22,10.9 -5.71,5.76 -8.36,13.36 -7.93,22.76 0.33,7.15 2.43,13.05 6.29,17.75 3.85,4.7 8.82,7.91 14.94,9.6l-4.36 26.7c-10.85,-2.22 -19.7,-7.78 -26.6,-16.73 -6.87,-8.92 -10.66,-20.76 -11.34,-35.56 -0.88,-19.24 4.28,-34.55 15.5,-45.91 11.21,-11.35 26.21,-17.45 45.01,-18.31 12.78,-0.59 23.87,1.41 33.3,6.01 9.43,4.6 16.9,11.18 22.37,19.73 5.47,8.52 8.48,18.98 9.06,31.37 1.38,30.12 -10.77,49.28 -36.46,57.43l-8.83 -26.47c8.66,-1.79 14.95,-5.47 18.89,-11.09 3.94,-5.65 5.76,-12.22 5.41,-19.77 -0.36,-7.83 -3.17,-14.37 -8.41,-19.69 -5.24,-5.32 -13.39,-8.53 -24.42,-9.67l1.9 41.43 -20.43 0.94zm-49.79 -108.91l3.09 -26.67 51.21 5.94c0.13,-5.98 -0.78,-10.15 -2.81,-12.5 -1.99,-2.34 -7.86,-6.32 -17.59,-11.86 -12.38,-7 -19.85,-13.49 -22.37,-19.4 -2.52,-5.89 -3.09,-14.93 -1.67,-27.19 0.07,-0.61 0.19,-1.9 0.37,-3.87l17.97 2.09 -0.52 3.76c-0.63,5.46 -0.48,9.51 0.46,12.17 0.94,2.65 2.58,4.9 4.92,6.75 2.34,1.86 7.24,4.76 14.73,8.7 3.98,2.11 7.24,4.26 9.82,6.48 2.58,2.2 4.83,5.84 6.74,10.91 2.2,-5.74 5.87,-10.26 10.96,-13.57 5.1,-3.33 12.14,-6.79 21.15,-10.41l34.99 -14.11 -3.63 31.27 -32.78 12.19c-0.48,0.2 -1.38,0.62 -2.73,1.24 -0.45,0.26 -2.48,1.14 -6.03,2.65 -6.33,2.69 -10.34,5.01 -12.07,6.99 -1.74,2 -2.87,5.2 -3.44,9.63l52.56 6.1 -3.09 26.67 -120.22 -13.95zm77.1 -111.78c-11.69,-3.94 -20.86,-9.19 -27.53,-15.7 -4.89,-4.81 -8.82,-10.5 -11.8,-17.01 -2.98,-6.51 -4.59,-13.08 -4.88,-19.72 -0.37,-8.85 1.15,-18.41 4.61,-28.64 6.26,-18.54 16.51,-31.56 30.76,-39.16 14.27,-7.56 30.74,-8.19 49.46,-1.88 18.56,6.26 31.21,16.69 37.95,31.24 6.77,14.56 7.02,31.1 0.8,49.55 -6.3,18.69 -16.53,31.81 -30.69,39.31 -14.13,7.51 -30.36,8.19 -48.67,2.01zm8.05 -26.4c13,4.39 23.96,4.41 32.91,0.1 8.93,-4.32 15.11,-11.55 18.52,-21.67 3.42,-10.15 2.89,-19.57 -1.56,-28.34 -4.48,-8.74 -13.37,-15.36 -26.69,-19.85 -13.16,-4.44 -24.05,-4.59 -32.65,-0.43 -8.62,4.13 -14.68,11.43 -18.22,21.93 -3.53,10.47 -3.1,20.03 1.28,28.64 4.41,8.62 13.2,15.17 26.41,19.63zm-3.61 -161.09l46.82 -80.19 104.52 61.02 -13.54 23.18 -86.85 -50.71 -20.07 34.38 44.62 26.05c12.77,7.46 21.42,13.15 25.91,17.03 4.52,3.88 7.16,8.46 7.87,13.74 0.7,5.28 -1.19,11.75 -5.68,19.45 -1.59,2.72 -4.69,7.48 -9.33,14.35l-16.37 -9.56 3.09 -5.13c2.82,-4.82 4.15,-8.44 3.92,-10.79 -0.21,-2.37 -2.65,-4.91 -7.3,-7.62l-18 -10.4 -59.61 -34.8zm116.13 -75.62c-9.62,-7.73 -16.43,-15.81 -20.43,-24.22 -2.93,-6.2 -4.67,-12.9 -5.22,-20.04 -0.55,-7.14 0.19,-13.86 2.21,-20.2 2.7,-8.44 7.43,-16.88 14.19,-25.3 12.26,-15.25 26.37,-23.94 42.36,-26.17 16,-2.19 31.69,2.9 47.07,15.28 15.26,12.27 23.55,26.41 24.87,42.4 1.34,16.01 -4.12,31.61 -16.32,46.79 -12.35,15.37 -26.48,24.17 -42.35,26.33 -15.85,2.18 -31.32,-2.77 -46.38,-14.88zm16.65 -22.01c10.69,8.59 20.98,12.39 30.86,11.43 9.86,-0.98 18.16,-5.63 24.85,-13.96 6.71,-8.35 9.46,-17.38 8.31,-27.14 -1.2,-9.75 -7.26,-19.02 -18.22,-27.83 -10.83,-8.7 -21,-12.6 -30.5,-11.65 -9.51,0.91 -17.72,5.67 -24.66,14.3 -6.93,8.61 -9.81,17.73 -8.67,27.33 1.17,9.61 7.16,18.78 18.03,27.52zm50.07 -148.06l68.77 -57.75 13.15 15.66 -48.21 40.48 64.68 77.02 -20.56 17.26 -77.83 -92.68zm93.42 -78.07l21.26 -13.14 42.37 68.53 3.3 -96.77 22.69 -14.02 63.64 102.94 -21.26 13.14 -41.69 -67.43 -3.98 95.67 -22.68 14.02 -63.64 -102.94zm126.95 -75.98l24.62 -10.71 11.52 26.48c3.73,8.58 6.54,14.11 8.46,16.6 1.91,2.52 5.03,4.05 9.35,4.63 4.3,0.59 9.78,-0.57 16.41,-3.44 5.24,-2.28 9.68,-4.83 13.33,-7.64 3.63,-2.81 6.5,-5.87 8.6,-9.18l-20.8 -47.82 24.62 -10.7 48.26 110.99 -24.62 10.7 -19.44 -44.72c-4.11,4.18 -8.34,7.84 -12.7,10.96 -4.36,3.13 -8.87,5.7 -13.5,7.72 -12.11,5.27 -23.38,7.06 -33.8,5.39 -10.42,-1.68 -18.43,-8.95 -24.02,-21.81l-16.28 -37.43zm170.58 60.43l-32.05 -116.71 94.63 -25.98 5.42 19.72 -68.74 18.88 7.12 25.91 63.92 -17.55 5.42 19.72 -63.92 17.56 8.69 31.62 71.24 -19.56 5.42 19.72 -97.13 26.67zm198.11 -85.62l26.64 3.89c-2.24,13.73 -7.56,24.39 -15.91,32 -8.35,7.58 -19.57,12.29 -33.68,14.11 -17.48,2.25 -32.53,-1.35 -45.2,-10.79 -12.64,-9.45 -20.19,-23.62 -22.63,-42.54 -2.57,-19.98 1.09,-36.24 10.96,-48.76 9.87,-12.52 24.03,-19.97 42.45,-22.35 16.1,-2.07 29.73,0.6 40.89,8 6.66,4.37 12.08,11.17 16.32,20.42l-25.53 9.09c-2.36,-6 -6.24,-10.5 -11.63,-13.48 -5.42,-2.96 -11.65,-3.98 -18.69,-3.07 -9.76,1.26 -17.28,5.46 -22.52,12.65 -5.27,7.15 -6.97,17.89 -5.13,32.19 1.96,15.14 6.35,25.57 13.15,31.22 6.83,5.68 15.02,7.89 24.6,6.66 7.07,-0.91 12.9,-3.73 17.45,-8.5 4.56,-4.76 7.4,-11.66 8.46,-20.75zm56.07 -79.24l26.85 0.24 -0.46 51.55c5.96,-0.51 10.01,-1.85 12.13,-4.12 2.11,-2.23 5.44,-8.49 9.92,-18.76 5.64,-13.05 11.3,-21.17 16.91,-24.3 5.58,-3.14 14.52,-4.67 26.86,-4.55 0.61,0 1.91,-0.01 3.89,-0.05l-0.16 18.09 -3.8 -0.12c-5.49,-0.05 -9.51,0.54 -12.05,1.75 -2.54,1.22 -4.59,3.09 -6.19,5.61 -1.6,2.52 -3.96,7.71 -7.08,15.57 -1.67,4.18 -3.46,7.66 -5.4,10.46 -1.91,2.8 -5.3,5.42 -10.13,7.85 5.94,1.57 10.82,4.74 14.66,9.46 3.85,4.71 8.05,11.34 12.6,19.92l17.75 33.29 -31.48 -0.28 -15.61 -31.3c-0.25,-0.46 -0.76,-1.31 -1.52,-2.58 -0.31,-0.42 -1.4,-2.35 -3.28,-5.72 -3.33,-6 -6.08,-9.75 -8.22,-11.26 -2.18,-1.51 -5.48,-2.3 -9.95,-2.4l-0.47 52.91 -26.85 -0.24 1.08 -121.02zm129.2 5.09l24.74 3.58 -11.54 79.74 64.68 -72.05 26.39 3.82 -17.33 119.78 -24.74 -3.58 11.35 -78.46 -64.5 70.77 -26.39 -3.82 17.33 -119.78zm152.41 26.92l23.71 7.91 -25.5 76.43 76.43 -59.44 25.3 8.44 -38.3 114.81 -23.71 -7.91 25.09 -75.2 -76.02 58.21 -25.3 -8.44 38.3 -114.81zm76.06 -11.51l11.77 3.93c-3.04,6.86 -7.65,11.53 -13.77,13.97 -6.12,2.44 -12.97,2.42 -20.56,-0.11 -7.61,-2.54 -13.11,-6.63 -16.54,-12.26 -3.43,-5.63 -4.31,-12.13 -2.62,-19.44l11.77 3.93c-0.82,3.82 -0.36,7.1 1.47,9.81 1.82,2.72 5.09,4.84 9.77,6.41 4.66,1.55 8.54,1.81 11.63,0.73 3.09,-1.07 5.43,-3.41 7.07,-6.96zm130.86 92.33l78.09 47.63 -52.38 85.86 9.96 6.07 -24.39 39.97 -19.13 -11.67 13.74 -22.51 -70.98 -43.29 -13.73 22.51 -19.13 -11.67 24.38 -39.98 9.64 5.88c10.08,-5.96 19.44,-14.31 28.04,-25.04 8.62,-10.75 18.35,-25.04 29.22,-42.87l6.66 -10.92zm11.17 30.77c-19.07,31.27 -36.15,52.14 -51.21,62.61l42.84 26.13 41.72 -68.4 -33.35 -20.35zm106.2 42.94l19.31 15.87 -51.17 62.24 92.65 -28.14 20.59 16.93 -76.85 93.49 -19.31 -15.87 50.35 -61.24 -91.83 27.14 -20.59 -16.93 76.86 -93.49zm113.38 99.27l18.04 19.89 -38.18 34.64c4.42,4.03 8.15,6.09 11.26,6.12 3.07,0.04 9.93,-1.76 20.51,-5.44 13.41,-4.71 23.22,-6.06 29.32,-4.07 6.09,1.97 13.28,7.5 21.57,16.65 0.41,0.46 1.3,1.39 2.67,2.82l-13.39 12.15 -2.48 -2.87c-3.69,-4.07 -6.85,-6.62 -9.46,-7.67 -2.62,-1.04 -5.39,-1.28 -8.32,-0.74 -2.94,0.54 -8.35,2.33 -16.25,5.37 -4.2,1.61 -7.97,2.65 -11.35,3.13 -3.35,0.5 -7.57,-0.22 -12.64,-2.11 2.87,5.43 3.86,11.17 3,17.19 -0.85,6.02 -2.87,13.61 -6.08,22.77l-12.41 35.63 -21.15 -23.31 12.4 -32.7c0.17,-0.49 0.44,-1.44 0.86,-2.87 0.1,-0.51 0.78,-2.62 1.97,-6.29 2.15,-6.53 3.03,-11.08 2.69,-13.69 -0.37,-2.63 -2.02,-5.58 -4.98,-8.93l-39.19 35.55 -18.04 -19.89 89.63 -81.32zm2.5 195.66l83.86 -55.52 -21.67 -32.73 17.06 -11.29 58.06 87.7 -17.06 11.29 -21.57 -32.58 -83.87 55.52 -14.81 -22.38zm87.11 169.71l-11.96 -26.33 20.35 -21.82 -22 -48.41 -29.64 1.37 -11.74 -25.85 131.48 -3.2 11.73 25.82 -88.22 98.42zm23.41 -64.53l33.16 -35.3 -48.18 2.23 15.02 33.07zm-19.94 78.94l118.39 -25.16 5.58 26.26 -46.63 9.91 10.85 51.07 46.63 -9.91 5.58 26.26 -118.38 25.16 -5.58 -26.26 51.76 -11 -10.85 -51.07 -51.76 11 -5.58 -26.26zm26.97 161.07l100.47 -4.62 -1.81 -39.21 20.43 -0.94 4.83 105.06 -20.43 0.94 -1.8 -39.03 -100.47 4.62 -1.23 -26.81z"/>
  <circle class="fil2 str0" transform="matrix(0.97041 -0.291205 0.320214 0.889342 5734.75 7444.77)" r="798.07"/>
  <path class="fil3" d="M4954.8 7990.81l41.48 57.19c12.54,-11.37 20.56,-24.13 24.08,-38.25 3.53,-14.12 0.57,-27.69 -8.85,-40.67 -7.16,-9.87 -15.91,-16.12 -26.28,-18.86 -10.37,-2.74 -21.07,-2.19 -32.15,1.7l-18.06 -42.62c18.93,-8.02 37.87,-9.22 56.91,-3.55 18.98,5.66 35.88,18.66 50.69,39.08 19.26,26.55 25.47,53.74 18.6,81.52 -6.86,27.78 -24.52,51.95 -52.95,72.57 -19.32,14.01 -38.41,22.61 -57.36,25.76 -18.94,3.16 -36.67,1.47 -53.12,-5.1 -16.43,-6.53 -30.85,-18.35 -43.25,-35.45 -30.16,-41.57 -29.08,-81.45 3.26,-119.59l38.35 28.69c-11.8,11.49 -18.15,23.24 -19.06,35.33 -0.88,12.13 2.41,23.38 9.98,33.8 7.84,10.81 18.29,17.26 31.38,19.45 13.08,2.19 28.75,-1.64 46.94,-11.39l-41.48 -57.19 30.89 -22.41zm224.24 121.55l36.91 27.01 -56.81 77.63c8.81,5.14 15.89,7.13 21.29,5.81 5.37,-1.28 16.78,-7.45 34.17,-18.57 22.03,-14.17 38.71,-20.85 49.9,-20.03 11.14,0.8 25.17,7.35 42.14,19.76 0.85,0.63 2.66,1.89 5.44,3.79l-19.93 27.24 -5.12 -3.94c-7.56,-5.52 -13.75,-8.63 -18.6,-9.31 -4.84,-0.68 -9.72,0.11 -14.68,2.35 -4.96,2.24 -13.88,7.75 -26.78,16.56 -6.87,4.67 -13.14,8.17 -18.87,10.48 -5.69,2.35 -13.24,2.95 -22.59,1.84 6.51,8.28 9.81,17.93 10,28.88 0.19,10.96 -1.22,25.17 -4.26,42.68l-11.69 68.06 -43.27 -31.67 12.48 -62.91c0.16,-0.93 0.37,-2.73 0.7,-5.41 0.04,-0.94 0.63,-4.95 1.69,-11.92 1.91,-12.41 2.19,-20.81 0.87,-25.22 -1.37,-4.45 -5.06,-8.92 -11.15,-13.5l-58.3 79.67 -36.91 -27.01 133.37 -182.25zm171.82 252.01c6.02,-22.22 14.43,-39.99 25.16,-53.31 7.93,-9.78 17.44,-17.93 28.41,-24.44 10.96,-6.5 22.13,-10.51 33.49,-12.06 15.15,-2.05 31.61,-0.7 49.37,4.11 32.17,8.71 55.14,25.66 69.07,50.84 13.87,25.21 15.99,55.58 6.36,91.15 -9.55,35.26 -26.61,60.27 -51.13,74.98 -24.53,14.76 -52.85,17.77 -84.87,9.1 -32.42,-8.78 -55.56,-25.67 -69.32,-50.69 -13.77,-24.97 -15.97,-54.86 -6.54,-89.67zm45.76 10.81c-6.69,24.71 -6.03,44.98 1.93,60.86 7.97,15.83 20.75,26.15 38.31,30.91 17.61,4.77 33.73,2.33 48.47,-7.24 14.7,-9.64 25.47,-27.09 32.33,-52.41 6.77,-25.01 6.35,-45.17 -1.33,-60.43 -7.62,-15.3 -20.52,-25.38 -38.74,-30.31 -18.17,-4.92 -34.52,-2.65 -49,6.78 -14.49,9.47 -25.16,26.74 -31.96,51.85zm366.95 170.73l-7.12 -187.53 -66.81 2.54 -1.45 -38.14 179.02 -6.8 1.45 38.14 -66.5 2.53 7.12 187.54 -45.7 1.73zm225.67 -139.39c-8.55,-21.38 -12.51,-40.63 -11.93,-57.73 0.46,-12.58 3.16,-24.81 8.02,-36.61 4.85,-11.79 11.36,-21.7 19.52,-29.77 10.88,-10.74 24.85,-19.56 41.94,-26.39 30.94,-12.37 59.49,-12.63 85.76,-0.87 26.24,11.81 46.19,34.81 59.86,69.03 13.56,33.93 14.95,64.17 4.19,90.66 -10.74,26.54 -31.56,45.96 -62.37,58.27 -31.19,12.47 -59.83,12.88 -85.87,1.15 -26.01,-11.69 -45.74,-34.26 -59.12,-67.74zm43.07 -18.86c9.5,23.77 22.22,39.58 38.12,47.49 15.88,7.86 32.3,8.43 49.19,1.68 16.94,-6.77 28.36,-18.41 34.39,-34.92 5.96,-16.53 4.08,-36.95 -5.66,-61.31 -9.62,-24.07 -22.07,-39.92 -37.39,-47.5 -15.28,-7.65 -31.66,-7.95 -49.18,-0.94 -17.48,6.98 -29.18,18.63 -35.09,34.86 -5.89,16.28 -4.04,36.49 5.62,60.65zm211.82 -238l120.54 -102.43 146.24 172.09 -34.85 29.61 -121.52 -143.01 -51.67 43.91 62.43 73.46c17.87,21.03 29.64,36.35 35.28,45.83 5.68,9.52 7.83,18.95 6.33,28.22 -1.5,9.28 -8.02,18.81 -19.6,28.65 -4.09,3.47 -11.8,9.34 -23.18,17.7l-22.91 -26.96 7.87 -6.48c7.25,-6.16 11.36,-11.31 12.18,-15.38 0.86,-4.11 -1.98,-9.97 -8.49,-17.62l-25.24 -29.46 -83.4 -98.14zm187.83 -197.74l22.96 -39.55 83.2 48.3c4.19,-9.3 5.41,-16.55 3.53,-21.78 -1.84,-5.2 -9.18,-15.9 -22.07,-32.02 -16.41,-20.41 -24.82,-36.3 -25.19,-47.5 -0.38,-11.17 4.65,-25.81 15.21,-44 0.53,-0.91 1.59,-2.84 3.19,-5.81l29.19 16.94 -3.38 5.51c-4.7,8.09 -7.13,14.58 -7.3,19.47 -0.16,4.89 1.14,9.66 3.89,14.35 2.74,4.69 9.17,12.99 19.29,24.88 5.37,6.34 9.51,12.2 12.42,17.66 2.93,5.41 4.33,12.85 4.22,22.26 7.55,-7.35 16.79,-11.65 27.66,-13 10.88,-1.35 25.16,-1.44 42.89,-0.26l68.91 4.44 -26.92 46.37 -63.87 -5.78c-0.94,-0.06 -2.75,-0.08 -5.46,-0.13 -0.94,0.06 -4.99,-0.1 -12.04,-0.42 -12.54,-0.59 -20.92,0.01 -25.17,1.8 -4.29,1.83 -8.34,5.98 -12.25,12.52l85.38 49.57 -22.96 39.55 -195.31 -113.39z"/>
  <circle class="fil2" cx="5735.8" cy="7484.2" r="811.74"/>
  <path class="fil4" d="M6636.02 7605.82c41.49,69.79 61.7,87.61 61.7,113.45 0,25.84 -19.42,61.1 -61.7,61.1 -42.29,0 -67.84,-22.38 -67.84,-64.67 0,-42.29 45.38,-67.05 67.84,-109.88z"/>
  <path class="fil4" d="M4858.81 7674.93c41.49,69.79 61.7,87.61 61.7,113.45 0,25.84 -19.42,61.1 -61.7,61.1 -42.29,0 -67.84,-22.38 -67.84,-64.67 0,-42.29 45.38,-67.05 67.84,-109.88z"/>
 </g>
</svg>
